<svg width="20" height="22" viewBox="0 0 20 22" fill="none" xmlns="http://www.w3.org/2000/svg">
<g clip-path="url(#clip0_32_4933)">
<path d="M14.3874 12.6664C14.3831 13.4235 14.3831 14.1803 14.3874 14.9368C14.3874 15.4411 14.5662 15.6108 15.0803 15.6116C16.3293 15.6116 17.5776 15.6116 18.825 15.6116H19.1775V16.4841C19.0701 16.4898 18.9627 16.5005 18.8545 16.5005C17.6065 16.5005 16.3586 16.5005 15.1098 16.5005C14.558 16.5005 14.3899 16.6644 14.3883 17.2097C14.3883 17.946 14.3883 18.6826 14.3883 19.4194C14.3883 19.9458 14.5588 20.1074 15.0942 20.1082H19.1825V21.6538H0.815791V20.1107H1.13392C2.40264 20.1107 3.67136 20.1107 4.94008 20.1107C5.4263 20.1107 5.60178 19.9352 5.60506 19.4432C5.60943 18.6856 5.60943 17.9285 5.60506 17.172C5.60506 16.6849 5.42222 16.5054 4.93435 16.5037C3.67711 16.5037 2.41987 16.5037 1.16262 16.5037H0.815791V15.628C0.932222 15.6223 1.04126 15.6133 1.14949 15.6125C2.39799 15.6125 3.64623 15.6125 4.89418 15.6125C5.43944 15.6125 5.6067 15.4485 5.60916 14.8975C5.60916 14.1601 5.60916 13.4235 5.60916 12.6877C5.60916 12.1761 5.43533 12.0072 4.92615 12.0072H0.801017C0.801017 11.5579 0.795284 11.1225 0.807583 10.6871C0.807583 10.6354 0.898605 10.5567 0.960101 10.5411C2.66312 10.1172 3.67246 9.03653 4.02421 7.32614C4.03601 7.28969 4.05026 7.25408 4.06685 7.21955H6.50535C7.05225 7.21955 7.22116 7.05146 7.22116 6.50538C7.22116 5.10383 7.22116 3.70227 7.22116 2.30072V1.93011C8.13785 2.27284 9.04964 2.48275 9.99831 2.48029C10.947 2.47783 11.8424 2.2794 12.7664 1.92847V2.28104C12.7664 3.69298 12.7664 5.10464 12.7664 6.51604C12.7664 7.04572 12.9394 7.21873 13.4626 7.21955H15.9388C15.9716 7.36468 15.9978 7.50242 16.0347 7.6369C16.4521 9.16035 17.4286 10.1213 18.9562 10.5173C19.1464 10.5665 19.2021 10.6338 19.2021 10.8207C19.1898 11.1979 19.2021 11.5759 19.2021 11.9932C19.0841 11.9982 18.9775 12.0072 18.8701 12.0072C17.6019 12.0072 16.3332 12.0072 15.0639 12.0072C14.567 12.0072 14.3907 12.1769 14.3874 12.6664Z" fill="#5D6066"/>
<path d="M6.17743 4.94759V6.16357H4.07019V5.82165C4.07019 4.12328 4.07019 2.42518 4.07019 0.727357C4.07019 0.13536 4.20302 0.00334887 4.79174 0.00170898C5.03772 0.00170898 5.28371 0.00170898 5.52969 0.00170898C6.01099 0.00744857 6.17661 0.170618 6.17743 0.649463C6.17743 2.08272 6.17743 3.51543 6.17743 4.94759Z" fill="#5D6066"/>
<path d="M15.9225 5.40758V6.16193H13.83C13.8251 6.05123 13.816 5.95202 13.816 5.85281C13.816 4.13421 13.816 2.41561 13.816 0.697019C13.816 0.155038 13.9677 0.00498875 14.5105 0.00170898C14.7663 0.00170898 15.0222 0.00170898 15.278 0.00170898C15.7626 0.00662863 15.9217 0.165698 15.9225 0.649463C15.9247 2.23578 15.9247 3.82181 15.9225 5.40758Z" fill="#5D6066"/>
<path d="M4.54903 14.431C4.54903 14.4777 4.44819 14.5613 4.39407 14.5613C2.93458 14.5687 1.47589 14.5671 0 14.5671V13.0649H4.55642C4.55642 13.5225 4.56051 13.9767 4.54903 14.431Z" fill="#5D6066"/>
<path d="M19.9999 13.0649H15.4534V14.5458H19.9999V13.0649Z" fill="#5D6066"/>
<path d="M4.56457 17.8721C4.54571 18.2575 4.55965 18.6445 4.55965 19.0471H0.00158691V17.5671C0.108179 17.5614 0.198372 17.5515 0.287746 17.5515C1.60539 17.5515 2.92303 17.5573 4.24068 17.545C4.49732 17.5425 4.57769 17.6188 4.56457 17.8721Z" fill="#5D6066"/>
<path d="M19.9868 17.5696H15.4534V19.0455H19.9868V17.5696Z" fill="#5D6066"/>
</g>
<defs>
<clipPath id="clip0_32_4933">
<rect width="20" height="21.6563" fill="white"/>
</clipPath>
</defs>
</svg>
