<svg width="24" height="23" viewBox="0 0 24 23" fill="none" xmlns="http://www.w3.org/2000/svg">
<g clip-path="url(#clip0_32_4745)">
<path d="M24 10.7305H19.0876V22.1739H24V10.7305Z" fill="#5D6066"/>
<path d="M4.90115 10.7468H0V22.1603H4.90115V10.7468Z" fill="#5D6066"/>
<path d="M11.2684 10.7456H6.36548V22.1585H11.2684V10.7456Z" fill="#5D6066"/>
<path d="M17.6251 10.7422H12.7216V22.1539H17.6251V10.7422Z" fill="#5D6066"/>
<path d="M10.5565 6.43486H7.07214C7.21429 4.1605 7.76291 2.01126 8.81609 0.0012207C9.86458 2.01595 10.4202 4.15815 10.5565 6.43486Z" fill="#5D6066"/>
<path d="M23.277 6.43834H19.7897C19.9318 4.16457 20.481 2.01532 21.533 0C22.5874 2.01415 23.1342 4.16222 23.277 6.43834Z" fill="#5D6066"/>
<path d="M4.19925 6.42958H0.712524C0.853497 4.16286 1.40153 2.01949 2.4553 -0.00170898C3.50731 2.01244 4.05299 4.15639 4.19925 6.42958Z" fill="#5D6066"/>
<path d="M16.9202 6.43838H13.4335C13.5686 4.16696 14.1213 2.02652 15.1727 0.00415039C16.2312 2.01125 16.7687 4.15697 16.9202 6.43838Z" fill="#5D6066"/>
<path d="M17.2098 7.89038H13.1375V9.28072H17.2098V7.89038Z" fill="#5D6066"/>
<path d="M4.47944 7.88965H0.422363V9.28586H4.47944V7.88965Z" fill="#5D6066"/>
<path d="M23.5677 7.88672H19.5006V9.28705H23.5677V7.88672Z" fill="#5D6066"/>
<path d="M10.859 7.89209H6.78662V9.28478H10.859V7.89209Z" fill="#5D6066"/>
</g>
<defs>
<clipPath id="clip0_32_4745">
<rect width="24" height="22.1738" fill="white"/>
</clipPath>
</defs>
</svg>
