<svg width="24" height="31" viewBox="0 0 24 31" fill="none" xmlns="http://www.w3.org/2000/svg">
<path d="M12 16.8C11.3 16.8 10.6 16.53 10.07 16L3.54998 9.48001C3.4105 9.33888 3.33228 9.14844 3.33228 8.95001C3.33228 8.75158 3.4105 8.56115 3.54998 8.42001C3.83998 8.13001 4.31998 8.13001 4.60998 8.42001L11.13 14.94C11.61 15.42 12.39 15.42 12.87 14.94L19.39 8.42001C19.68 8.13001 20.16 8.13001 20.45 8.42001C20.74 8.71001 20.74 9.19001 20.45 9.48001L13.93 16C13.4 16.53 12.7 16.8 12 16.8Z" fill="#37404F"/>
<path d="M12 23.8C11.3 23.8 10.6 23.53 10.07 23L3.54998 16.48C3.4105 16.3389 3.33228 16.1484 3.33228 15.95C3.33228 15.7516 3.4105 15.5612 3.54998 15.42C3.83998 15.13 4.31998 15.13 4.60998 15.42L11.13 21.94C11.61 22.42 12.39 22.42 12.87 21.94L19.39 15.42C19.68 15.13 20.16 15.13 20.45 15.42C20.74 15.71 20.74 16.19 20.45 16.48L13.93 23C13.4 23.53 12.7 23.8 12 23.8Z" fill="#37404F"/>
</svg>
