<svg width="20" height="20" viewBox="0 0 20 20" fill="none" xmlns="http://www.w3.org/2000/svg">
<g clip-path="url(#clip0_32_1762)">
<path d="M19.9536 3.97741C19.7737 3.21143 19.1224 2.7551 18.2694 2.7551C14.7561 2.7551 11.243 2.7551 7.73009 2.7551C6.76722 2.7551 5.80434 2.75219 4.84146 2.7551C4.6851 2.7551 4.60633 2.72833 4.58399 2.5508C4.52991 2.14802 4.44643 1.74873 4.37237 1.34827C4.23834 0.624195 3.60818 0.0380652 2.88514 0.0153651C2.14387 -0.00791712 1.40085 0.000813921 0.658408 0.0101268C0.281604 0.0147832 0.00296917 0.320362 2.99772e-05 0.692877C-0.00349705 1.10323 0.304529 1.39716 0.755401 1.40066C1.36558 1.40531 1.97575 1.40066 2.58593 1.40066C2.90101 1.40066 2.94451 1.43791 3.00094 1.74989C3.12125 2.42275 3.24176 3.09521 3.36246 3.76729C3.79864 6.17778 4.23501 8.58904 4.67158 11.0011C4.73859 11.3701 4.8009 11.7397 4.86674 12.1145L4.71625 12.1559C4.09004 12.3279 3.55215 12.7269 3.20959 13.2737C2.86704 13.8205 2.74491 14.475 2.8675 15.1069C2.97526 15.6726 3.27353 16.1855 3.71362 16.5617C4.15371 16.938 4.70961 17.1554 5.29057 17.1784C5.59507 17.1889 5.90074 17.1784 6.217 17.1784C5.96364 18.1633 6.17762 18.9828 6.99177 19.5736C7.69365 20.0846 8.47841 20.1388 9.2332 19.7162C10.2284 19.1592 10.5041 18.2721 10.246 17.1901H13.2728C13.023 18.1417 13.2276 18.9438 13.9994 19.5392C14.6713 20.0579 15.4408 20.1434 16.1979 19.7622C17.2648 19.2255 17.5629 18.3163 17.3036 17.1773C17.4476 17.1773 17.5723 17.1843 17.6963 17.1773C17.844 17.1679 17.9845 17.1113 18.0969 17.016C18.2093 16.9207 18.2874 16.7918 18.3194 16.6488C18.4311 16.1831 18.089 15.7891 17.5634 15.7867C16.6153 15.7827 15.6671 15.7867 14.7195 15.7867H5.61329C5.52512 15.7867 5.43694 15.7867 5.34876 15.7832C4.87849 15.7571 4.53755 15.5289 4.34239 15.1145C4.24717 14.9276 4.20766 14.7177 4.22848 14.5094C4.2493 14.3011 4.32959 14.1029 4.45995 13.9381C4.71272 13.5953 5.06778 13.4591 5.49396 13.4597C8.99238 13.4632 12.4908 13.4632 15.9892 13.4597C17.37 13.4597 18.3964 12.6105 18.6633 11.2711C19.0942 9.11114 19.5392 6.95463 19.9618 4.79346C20.0151 4.52372 20.0123 4.24605 19.9536 3.97741ZM15.2838 17.2005C15.3767 17.1973 15.4694 17.2125 15.5562 17.2453C15.6431 17.2781 15.7224 17.3279 15.7896 17.3915C15.8567 17.4552 15.9102 17.5316 15.947 17.6162C15.9838 17.7007 16.0031 17.7917 16.0038 17.8837C16.0045 17.9758 15.9865 18.067 15.9509 18.1521C15.9153 18.2372 15.8629 18.3143 15.7967 18.3789C15.7305 18.4436 15.6519 18.4944 15.5655 18.5285C15.4792 18.5625 15.3868 18.579 15.2938 18.5771C15.2002 18.579 15.1071 18.5623 15.02 18.528C14.933 18.4936 14.8538 18.4424 14.7871 18.3773C14.7204 18.3122 14.6675 18.2346 14.6315 18.1489C14.5956 18.0633 14.5773 17.9714 14.5778 17.8786C14.5787 17.7881 14.5976 17.6985 14.6337 17.6153C14.6697 17.532 14.7221 17.4566 14.7878 17.3936C14.8534 17.3305 14.9311 17.281 15.0162 17.2478C15.1014 17.2147 15.1923 17.1986 15.2838 17.2005ZM8.23446 17.2005C8.32607 17.1998 8.4169 17.2173 8.50162 17.2518C8.58633 17.2863 8.66323 17.3373 8.72779 17.4016C8.79235 17.466 8.84328 17.5425 8.87757 17.6266C8.91187 17.7107 8.92885 17.8007 8.92752 17.8914C8.92824 17.9822 8.91062 18.0722 8.87571 18.1561C8.84081 18.24 8.78931 18.3162 8.72425 18.3801C8.65918 18.4441 8.58187 18.4945 8.49685 18.5284C8.41183 18.5623 8.32082 18.5791 8.22917 18.5777C8.13586 18.5783 8.04336 18.5605 7.95711 18.5252C7.87085 18.49 7.79257 18.4381 7.72686 18.3725C7.66116 18.3069 7.60934 18.2289 7.57447 18.1432C7.53959 18.0575 7.52235 17.9658 7.52376 17.8734C7.52528 17.7828 7.54493 17.6935 7.58156 17.6105C7.6182 17.5275 7.67109 17.4525 7.73718 17.3898C7.80328 17.3272 7.88126 17.2782 7.96662 17.2456C8.05197 17.213 8.14301 17.1975 8.23446 17.2V17.2005ZM18.5422 4.58916C18.1111 6.74897 17.6818 8.90878 17.2542 11.0686C17.1367 11.6681 16.6876 12.0581 16.0903 12.0581C12.8713 12.0612 9.65252 12.0612 6.43391 12.0581C6.39747 12.0581 6.36102 12.054 6.29695 12.0499C5.82256 9.42021 5.3517 6.79747 4.87497 4.1497H18.173C18.6221 4.1497 18.6304 4.15785 18.5422 4.58916Z" fill="#A4AEB8"/>
<path d="M12.2259 6.31765C12.2259 7.51047 12.2259 8.7033 12.2259 9.89612C12.2259 10.3408 11.932 10.6609 11.5275 10.665C11.1231 10.6691 10.8168 10.3443 10.8157 9.88565C10.8157 9.28962 10.8157 8.69302 10.8157 8.09641C10.8157 7.4998 10.8157 6.90378 10.8157 6.30717C10.8157 5.85608 11.0996 5.5505 11.5134 5.54643C11.9273 5.54235 12.2259 5.8555 12.2259 6.31765Z" fill="#A4AEB8"/>
<path d="M9.40124 9.01262C9.39418 9.41715 9.08498 9.73204 8.70054 9.73495C8.51175 9.73099 8.33208 9.65382 8.20017 9.52005C8.06825 9.38627 7.99463 9.20657 7.99513 9.01961C7.98925 8.41039 7.98925 7.80059 7.99513 7.19021C7.99513 6.78277 8.30198 6.47661 8.69525 6.47486C9.08851 6.47311 9.39242 6.77811 9.40477 7.18322V8.11975C9.40124 8.41834 9.40771 8.71577 9.40124 9.01262Z" fill="#A4AEB8"/>
<path d="M15.0481 9.00502C15.0446 9.42002 14.7236 9.74307 14.3333 9.7355C14.1442 9.72822 13.9656 9.64781 13.8358 9.51155C13.706 9.37529 13.6354 9.19405 13.639 9.00677C13.6351 8.40453 13.6351 7.80191 13.639 7.1989C13.642 6.77808 13.9512 6.47017 14.3533 6.47541C14.7442 6.48006 15.0399 6.78739 15.0493 7.19774V8.11215C15.0493 8.41016 15.0528 8.70759 15.0481 9.00502Z" fill="#A4AEB8"/>
</g>
<defs>
<clipPath id="clip0_32_1762">
<rect width="20" height="20" fill="white"/>
</clipPath>
</defs>
</svg>
