<svg version="1.1" xmlns="http://www.w3.org/2000/svg" xmlns:xlink="http://www.w3.org/1999/xlink" x="0px" y="0px" viewBox="0 0 512 512" style="enable-background:new 0 0 512 512;" xml:space="preserve">
<g id="F339_x2C__Check_x2C__circle_x2C__complete_x2C__ok">
<path style="fill:#FFFFFF;" d="M256,26c127.03,0,230,102.97,230,230c0,127.03-102.97,230-230,230C128.97,486,26,383.03,26,256
		C26,128.97,128.97,26,256,26z" id="id_101"></path>
<path style="fill:#8257e5;" d="M256,496c-64.108,0-124.378-24.964-169.707-70.293C40.964,380.379,16,320.108,16,256
		S40.964,131.622,86.293,86.293C131.622,40.964,191.892,16,256,16s124.379,24.964,169.707,70.293
		C471.036,131.622,496,191.892,496,256s-24.964,124.379-70.293,169.707C380.379,471.036,320.108,496,256,496z M256,36
		C134.691,36,36,134.691,36,256s98.691,220,220,220s220-98.691,220-220S377.309,36,256,36z" id="id_102"></path>
<path style="fill:#8257e5;" d="M205.999,376c-2.956,0-5.774-1.31-7.681-3.599l-50-60c-3.536-4.242-2.962-10.548,1.28-14.084
		c4.244-3.534,10.549-2.962,14.084,1.281l41.158,49.389L347.52,120.7c2.928-4.683,9.095-6.108,13.78-3.18
		c4.684,2.927,6.107,9.097,3.181,13.78l-150.001,240c-1.7,2.72-4.601,4.459-7.8,4.677C206.453,375.992,206.225,376,205.999,376z" id="id_103"></path>
</g>
<g id="Layer_1">
</g>
</svg>