<svg width="18" height="14" viewBox="0 0 18 14" fill="none" xmlns="http://www.w3.org/2000/svg">
<path d="M16.75 6.03334C17.075 6.03334 17.3333 5.77501 17.3333 5.45001V4.67501C17.3333 1.25834 16.2916 0.216675 12.875 0.216675H5.12496C1.70829 0.216675 0.666626 1.25834 0.666626 4.67501V5.06668C0.666626 5.39167 0.924959 5.65001 1.24996 5.65001C1.99996 5.65001 2.60829 6.25834 2.60829 7.00834C2.60829 7.75834 1.99996 8.35834 1.24996 8.35834C0.924959 8.35834 0.666626 8.61667 0.666626 8.94168V9.33334C0.666626 12.75 1.70829 13.7917 5.12496 13.7917H12.875C16.2916 13.7917 17.3333 12.75 17.3333 9.33334C17.3333 9.00834 17.075 8.75001 16.75 8.75001C16.3897 8.75001 16.0442 8.6069 15.7895 8.35216C15.5347 8.09742 15.3916 7.75193 15.3916 7.39167C15.3916 7.03142 15.5347 6.68593 15.7895 6.43119C16.0442 6.17645 16.3897 6.03334 16.75 6.03334ZM6.49996 4.40001C6.95829 4.40001 7.33329 4.77501 7.33329 5.23334C7.33329 5.69168 6.96663 6.06668 6.49996 6.06668C6.04163 6.06668 5.66663 5.69168 5.66663 5.23334C5.66663 4.77501 6.03329 4.40001 6.49996 4.40001ZM11.5 10.2333C11.0333 10.2333 10.6583 9.85834 10.6583 9.40001C10.6583 8.94168 11.0333 8.56668 11.4916 8.56668C11.95 8.56668 12.325 8.94168 12.325 9.40001C12.325 9.85834 11.9666 10.2333 11.5 10.2333ZM12.25 4.90001L6.64163 10.5083C6.51663 10.6333 6.35829 10.6917 6.19996 10.6917C6.04163 10.6917 5.88329 10.6333 5.75829 10.5083C5.64206 10.3907 5.57687 10.232 5.57687 10.0667C5.57687 9.90132 5.64206 9.74262 5.75829 9.62501L11.3666 4.01667C11.6083 3.77501 12.0083 3.77501 12.25 4.01667C12.4916 4.25834 12.4916 4.65834 12.25 4.90001Z" fill="#9EA2A8"/>
</svg>
