<svg width="16" height="18" viewBox="0 0 16 18" fill="none" xmlns="http://www.w3.org/2000/svg">
<path d="M11.9583 1.96663V0.666626C11.9583 0.324959 11.675 0.041626 11.3333 0.041626C10.9917 0.041626 10.7083 0.324959 10.7083 0.666626V1.91663H5.29167V0.666626C5.29167 0.324959 5.00833 0.041626 4.66667 0.041626C4.325 0.041626 4.04167 0.324959 4.04167 0.666626V1.96663C1.79167 2.17496 0.7 3.51663 0.533333 5.50829C0.516667 5.74996 0.716667 5.94996 0.95 5.94996H15.05C15.2917 5.94996 15.4917 5.74163 15.4667 5.50829C15.3 3.51663 14.2083 2.17496 11.9583 1.96663ZM14.6667 7.19996H1.33333C0.875 7.19996 0.5 7.57496 0.5 8.03329V13.1666C0.5 15.6666 1.75 17.3333 4.66667 17.3333H11.3333C14.25 17.3333 15.5 15.6666 15.5 13.1666V8.03329C15.5 7.57496 15.125 7.19996 14.6667 7.19996ZM5.675 14.175C5.63333 14.2083 5.59167 14.25 5.55 14.275C5.5 14.3083 5.45 14.3333 5.4 14.35C5.35 14.375 5.3 14.3916 5.25 14.4C5.19167 14.4083 5.14167 14.4166 5.08333 14.4166C4.975 14.4166 4.86667 14.3916 4.76667 14.35C4.65833 14.3083 4.575 14.25 4.49167 14.175C4.34167 14.0166 4.25 13.8 4.25 13.5833C4.25 13.3666 4.34167 13.15 4.49167 12.9916C4.575 12.9166 4.65833 12.8583 4.76667 12.8166C4.91667 12.75 5.08333 12.7333 5.25 12.7666C5.3 12.775 5.35 12.7916 5.4 12.8166C5.45 12.8333 5.5 12.8583 5.55 12.8916L5.675 12.9916C5.825 13.15 5.91667 13.3666 5.91667 13.5833C5.91667 13.8 5.825 14.0166 5.675 14.175ZM5.675 11.2583C5.51667 11.4083 5.3 11.5 5.08333 11.5C4.86667 11.5 4.65 11.4083 4.49167 11.2583C4.34167 11.1 4.25 10.8833 4.25 10.6666C4.25 10.45 4.34167 10.2333 4.49167 10.075C4.725 9.84163 5.09167 9.76663 5.4 9.89996C5.50833 9.94163 5.6 9.99996 5.675 10.075C5.825 10.2333 5.91667 10.45 5.91667 10.6666C5.91667 10.8833 5.825 11.1 5.675 11.2583ZM8.59167 14.175C8.43333 14.325 8.21667 14.4166 8 14.4166C7.78333 14.4166 7.56667 14.325 7.40833 14.175C7.25833 14.0166 7.16667 13.8 7.16667 13.5833C7.16667 13.3666 7.25833 13.15 7.40833 12.9916C7.71667 12.6833 8.28333 12.6833 8.59167 12.9916C8.74167 13.15 8.83333 13.3666 8.83333 13.5833C8.83333 13.8 8.74167 14.0166 8.59167 14.175ZM8.59167 11.2583L8.46667 11.3583C8.41667 11.3916 8.36667 11.4166 8.31667 11.4333C8.26667 11.4583 8.21667 11.475 8.16667 11.4833C8.10833 11.4916 8.05833 11.5 8 11.5C7.78333 11.5 7.56667 11.4083 7.40833 11.2583C7.25833 11.1 7.16667 10.8833 7.16667 10.6666C7.16667 10.45 7.25833 10.2333 7.40833 10.075C7.48333 9.99996 7.575 9.94163 7.68333 9.89996C7.99167 9.76663 8.35833 9.84163 8.59167 10.075C8.74167 10.2333 8.83333 10.45 8.83333 10.6666C8.83333 10.8833 8.74167 11.1 8.59167 11.2583ZM11.5083 14.175C11.35 14.325 11.1333 14.4166 10.9167 14.4166C10.7 14.4166 10.4833 14.325 10.325 14.175C10.175 14.0166 10.0833 13.8 10.0833 13.5833C10.0833 13.3666 10.175 13.15 10.325 12.9916C10.6333 12.6833 11.2 12.6833 11.5083 12.9916C11.6583 13.15 11.75 13.3666 11.75 13.5833C11.75 13.8 11.6583 14.0166 11.5083 14.175ZM11.5083 11.2583L11.3833 11.3583C11.3333 11.3916 11.2833 11.4166 11.2333 11.4333C11.1833 11.4583 11.1333 11.475 11.0833 11.4833C11.025 11.4916 10.9667 11.5 10.9167 11.5C10.7 11.5 10.4833 11.4083 10.325 11.2583C10.175 11.1 10.0833 10.8833 10.0833 10.6666C10.0833 10.45 10.175 10.2333 10.325 10.075C10.4083 9.99996 10.4917 9.94163 10.6 9.89996C10.75 9.83329 10.9167 9.81663 11.0833 9.84996C11.1333 9.85829 11.1833 9.87496 11.2333 9.89996C11.2833 9.91663 11.3333 9.94163 11.3833 9.97496L11.5083 10.075C11.6583 10.2333 11.75 10.45 11.75 10.6666C11.75 10.8833 11.6583 11.1 11.5083 11.2583Z" fill="#9EA2A8"/>
</svg>
