<svg width="19" height="21" viewBox="0 0 19 21" fill="none" xmlns="http://www.w3.org/2000/svg">
<path d="M11.4583 1.925V0.625C11.4583 0.283333 11.175 0 10.8333 0C10.4917 0 10.2083 0.283333 10.2083 0.625V1.875H4.79167V0.625C4.79167 0.283333 4.50833 0 4.16667 0C3.825 0 3.54167 0.283333 3.54167 0.625V1.925C1.29167 2.13333 0.2 3.475 0.0333333 5.46667C0.0166666 5.70833 0.216667 5.90833 0.45 5.90833H14.55C14.7917 5.90833 14.9917 5.7 14.9667 5.46667C14.8 3.475 13.7083 2.13333 11.4583 1.925ZM14.1667 7.15833H0.833333C0.375 7.15833 0 7.53333 0 7.99167V13.125C0 15.625 1.25 17.2917 4.16667 17.2917H10.8333C13.75 17.2917 15 15.625 15 13.125V7.99167C15 7.53333 14.625 7.15833 14.1667 7.15833ZM5.175 14.1333C5.13333 14.1667 5.09167 14.2083 5.05 14.2333C5 14.2667 4.95 14.2917 4.9 14.3083C4.85 14.3333 4.8 14.35 4.75 14.3583C4.69167 14.3667 4.64167 14.375 4.58333 14.375C4.475 14.375 4.36667 14.35 4.26667 14.3083C4.15833 14.2667 4.075 14.2083 3.99167 14.1333C3.84167 13.975 3.75 13.7583 3.75 13.5417C3.75 13.325 3.84167 13.1083 3.99167 12.95C4.075 12.875 4.15833 12.8167 4.26667 12.775C4.41667 12.7083 4.58333 12.6917 4.75 12.725C4.8 12.7333 4.85 12.75 4.9 12.775C4.95 12.7917 5 12.8167 5.05 12.85L5.175 12.95C5.325 13.1083 5.41667 13.325 5.41667 13.5417C5.41667 13.7583 5.325 13.975 5.175 14.1333ZM5.175 11.2167C5.01667 11.3667 4.8 11.4583 4.58333 11.4583C4.36667 11.4583 4.15 11.3667 3.99167 11.2167C3.84167 11.0583 3.75 10.8417 3.75 10.625C3.75 10.4083 3.84167 10.1917 3.99167 10.0333C4.225 9.8 4.59167 9.725 4.9 9.85833C5.00833 9.9 5.1 9.95833 5.175 10.0333C5.325 10.1917 5.41667 10.4083 5.41667 10.625C5.41667 10.8417 5.325 11.0583 5.175 11.2167ZM8.09167 14.1333C7.93333 14.2833 7.71667 14.375 7.5 14.375C7.28333 14.375 7.06667 14.2833 6.90833 14.1333C6.75833 13.975 6.66667 13.7583 6.66667 13.5417C6.66667 13.325 6.75833 13.1083 6.90833 12.95C7.21667 12.6417 7.78333 12.6417 8.09167 12.95C8.24167 13.1083 8.33333 13.325 8.33333 13.5417C8.33333 13.7583 8.24167 13.975 8.09167 14.1333ZM8.09167 11.2167L7.96667 11.3167C7.91667 11.35 7.86667 11.375 7.81667 11.3917C7.76667 11.4167 7.71667 11.4333 7.66667 11.4417C7.60833 11.45 7.55833 11.4583 7.5 11.4583C7.28333 11.4583 7.06667 11.3667 6.90833 11.2167C6.75833 11.0583 6.66667 10.8417 6.66667 10.625C6.66667 10.4083 6.75833 10.1917 6.90833 10.0333C6.98333 9.95833 7.075 9.9 7.18333 9.85833C7.49167 9.725 7.85833 9.8 8.09167 10.0333C8.24167 10.1917 8.33333 10.4083 8.33333 10.625C8.33333 10.8417 8.24167 11.0583 8.09167 11.2167ZM11.0083 14.1333C10.85 14.2833 10.6333 14.375 10.4167 14.375C10.2 14.375 9.98333 14.2833 9.825 14.1333C9.675 13.975 9.58333 13.7583 9.58333 13.5417C9.58333 13.325 9.675 13.1083 9.825 12.95C10.1333 12.6417 10.7 12.6417 11.0083 12.95C11.1583 13.1083 11.25 13.325 11.25 13.5417C11.25 13.7583 11.1583 13.975 11.0083 14.1333ZM11.0083 11.2167L10.8833 11.3167C10.8333 11.35 10.7833 11.375 10.7333 11.3917C10.6833 11.4167 10.6333 11.4333 10.5833 11.4417C10.525 11.45 10.4667 11.4583 10.4167 11.4583C10.2 11.4583 9.98333 11.3667 9.825 11.2167C9.675 11.0583 9.58333 10.8417 9.58333 10.625C9.58333 10.4083 9.675 10.1917 9.825 10.0333C9.90833 9.95833 9.99167 9.9 10.1 9.85833C10.25 9.79167 10.4167 9.775 10.5833 9.80833C10.6333 9.81667 10.6833 9.83333 10.7333 9.85833C10.7833 9.875 10.8333 9.9 10.8833 9.93333L11.0083 10.0333C11.1583 10.1917 11.25 10.4083 11.25 10.625C11.25 10.8417 11.1583 11.0583 11.0083 11.2167Z" fill="white"/>
<circle cx="13.5" cy="15.9583" r="4.5" fill="#F00000" stroke="#2E3645"/>
<path d="M13.4049 13.251C13.4348 13.1588 13.5652 13.1588 13.5951 13.251L14.1511 14.9621C14.1645 15.0033 14.2029 15.0312 14.2462 15.0312H16.0454C16.1423 15.0312 16.1826 15.1552 16.1042 15.2121L14.6486 16.2696C14.6135 16.2951 14.5989 16.3402 14.6123 16.3815L15.1682 18.0926C15.1982 18.1847 15.0927 18.2613 15.0144 18.2044L13.5588 17.1469C13.5237 17.1214 13.4763 17.1214 13.4412 17.1469L11.9856 18.2044C11.9073 18.2613 11.8018 18.1847 11.8317 18.0926L12.3877 16.3815C12.4011 16.3402 12.3865 16.2951 12.3514 16.2696L10.8958 15.2121C10.8174 15.1552 10.8577 15.0312 10.9546 15.0312H12.7538C12.7971 15.0312 12.8355 15.0033 12.8489 14.9621L13.4049 13.251Z" fill="white"/>
</svg>
