<svg width="10" height="24" viewBox="0 0 10 24" fill="none" xmlns="http://www.w3.org/2000/svg">
<path d="M9.17591 22.3425C8.96238 20.4352 8.72194 18.5304 8.49589 16.6243C8.19115 14.0595 7.8885 11.4945 7.58794 8.92923C7.25231 6.1008 6.91041 3.27363 6.58042 0.444574C6.55725 0.24733 6.49088 0.10645 6.33308 0H1.55224C1.48461 0.0626174 1.41198 0.122104 1.35124 0.187852C0.952993 0.638071 0.562882 1.09581 0.157121 1.53914C0.0968909 1.59921 0.0517251 1.67266 0.025282 1.75352C-0.00116103 1.83437 -0.0081283 1.92033 0.00496502 2.00438C0.105153 2.84909 0.197196 3.69505 0.297383 4.53913C0.464572 5.94051 0.638655 7.34188 0.805217 8.74326C0.95049 9.96743 1.087 11.1922 1.2329 12.4164C1.35062 13.407 1.4796 14.397 1.59669 15.3876C1.7451 16.6399 1.88412 17.8992 2.0319 19.154C2.15087 20.1609 2.28237 21.1659 2.39257 22.1728C2.39676 22.2911 2.35553 22.4065 2.27735 22.4953C2.01436 22.7833 1.72757 23.0488 1.45581 23.3294C1.26795 23.5172 1.2642 23.7677 1.45581 23.8979C1.56912 23.9625 1.698 23.9948 1.82839 23.9912C3.97533 23.9971 6.12269 23.9983 8.27046 23.995C8.45018 23.995 8.62989 24 8.80961 23.995C9.02626 23.9856 9.17592 23.8666 9.18531 23.6518C9.19909 23.216 9.22412 22.7746 9.17591 22.3425ZM1.12207 4.89793H3.33309C3.39195 5.37883 3.45017 5.85472 3.51029 6.35003H1.29489C1.23853 5.87476 1.18218 5.39887 1.12207 4.89793ZM1.56789 8.59737C1.51154 8.12336 1.45518 7.64747 1.39695 7.15717H3.59921C3.65494 7.63995 3.70941 8.11021 3.76577 8.59737H1.56789ZM1.65431 9.39825H3.87034C3.92794 9.88667 3.98367 10.3563 4.04128 10.8478H1.83027C1.77266 10.3707 1.71443 9.88917 1.65431 9.39512V9.39825ZM1.958 11.9831C1.9461 11.8748 1.93421 11.7689 1.92106 11.6468H4.14022C4.154 11.7552 4.16714 11.8616 4.18217 11.9831H1.958ZM2.0513 12.7696H4.26922C4.28675 12.8723 4.30553 12.9831 4.32682 13.1108H2.08074C2.0701 12.9831 2.06132 12.8829 2.0513 12.7664V12.7696ZM2.18907 13.8917H4.39945C4.41698 14.0006 4.43515 14.1114 4.45582 14.2361H2.221C2.20973 14.1114 2.19909 14.0056 2.18907 13.8885V13.8917ZM2.36064 15.3632C2.34311 15.2511 2.32619 15.1459 2.30678 15.0213H4.5391C4.55601 15.1265 4.57416 15.2379 4.59482 15.3632H2.36064ZM2.44454 16.1471H4.67874C4.69001 16.2586 4.70001 16.3644 4.71191 16.484H2.49714C2.48023 16.3726 2.46395 16.2668 2.44454 16.144V16.1471ZM2.57917 17.2655H4.819C4.82902 17.3907 4.83715 17.4897 4.84592 17.6074H2.62551L2.57917 17.2655ZM2.71818 18.397H4.9411C4.95362 18.5022 4.96614 18.608 4.98054 18.7307H2.76264C2.74761 18.623 2.73384 18.5172 2.71818 18.3939V18.397ZM2.85531 19.516H5.0701C5.087 19.6212 5.10515 19.732 5.12582 19.8597H2.88286C2.87347 19.7383 2.8647 19.6318 2.85531 19.5128V19.516ZM2.99056 20.6431H5.20472L5.25795 20.9787H3.02063C3.00873 20.8554 2.99995 20.7558 2.99056 20.6418V20.6431ZM3.15525 22.1065C3.14147 21.9887 3.12833 21.8817 3.11393 21.7627H5.34247C5.35938 21.876 5.37504 21.9825 5.39382 22.1065H3.15525Z" fill="#5D6066"/>
</svg>
