<svg width="24" height="17" viewBox="0 0 24 17" fill="none" xmlns="http://www.w3.org/2000/svg">
<g clip-path="url(#clip0_32_4879)">
<path d="M23.9432 2.16293C23.8293 1.53684 23.943 0.891779 23.8102 0.265693V0.019043H23.1275V0.607296H3.22554C2.8974 0.594581 2.57597 0.703702 2.3237 0.913929C2.07143 1.12416 1.90579 1.42054 1.85912 1.74559C1.81147 2.00907 1.81147 2.2788 1.85912 2.54228C2.06373 3.29856 2.39059 4.01631 2.82673 4.66717C3.04508 5.01006 3.19279 5.39317 3.2612 5.79388C3.32962 6.1946 3.31775 6.60505 3.22554 7.00096C3.13691 7.4723 2.93496 7.91492 2.63728 8.29095C2.10238 8.97165 1.66804 9.72568 1.34729 10.5298C0.762842 12.0111 0.33644 13.55 0.0758322 15.1209C0.0523616 15.2841 0.0080502 15.4436 -0.0566406 15.5953V16.3162H7.3044V14.9503H7.11449C6.60224 14.9503 6.31784 14.7416 6.35579 14.2293C6.35627 13.975 6.40804 13.7233 6.50771 13.4894C7.00066 12.1035 7.7396 10.8181 8.68935 9.69489C8.84396 9.51495 9.00867 9.34389 9.18264 9.1826C9.32941 9.23835 9.48223 9.27667 9.63796 9.29654H11.2508C11.5093 9.3249 11.77 9.3249 12.0285 9.29654C12.7738 9.16076 13.4464 8.76398 13.9257 8.17724C14.1598 7.92797 14.3224 7.62003 14.3959 7.28606C14.4693 6.95209 14.4509 6.6045 14.3431 6.28C14.3431 6.07131 14.1345 5.86243 14.0207 5.61579H23.3549C23.3549 5.36915 23.5069 5.12271 23.5448 4.87607C23.5828 4.62943 23.7156 4.43957 24.0001 4.49649C24.0183 4.22485 24.0183 3.95244 24.0001 3.6808C24.014 3.17418 23.9949 2.66709 23.9432 2.16293ZM12.5598 8.10127C12.4558 8.21406 12.3296 8.30421 12.1892 8.36622C12.0489 8.42823 11.8975 8.46067 11.7441 8.46164H9.61897H9.33457C9.33457 7.93041 9.48613 7.41819 9.58099 6.83004C9.67251 7.04052 9.78066 7.24364 9.90383 7.43729C10.0646 7.7159 10.3105 7.93533 10.6056 8.06329C10.6937 8.11065 10.7968 8.12136 10.8927 8.09294C10.9887 8.06451 11.0697 7.99933 11.1179 7.9116C11.157 7.82591 11.1609 7.72812 11.129 7.63947C11.0971 7.55082 11.0317 7.47835 10.9469 7.43729C10.2829 7.07681 10.2261 6.45076 10.1503 5.8057C10.782 5.76517 11.4157 5.76517 12.0475 5.8057C12.2858 5.84731 12.5061 5.96009 12.6788 6.12947C12.8516 6.29885 12.9688 6.51684 13.0151 6.75431C13.0792 6.99705 13.0721 7.25311 12.9947 7.49195C12.9173 7.73078 12.773 7.94222 12.5788 8.10127H12.5598ZM21.3248 4.62942H12.1614C12.8365 4.31984 13.5635 4.13959 14.3051 4.09814C16.5438 4.09814 18.7826 4.09814 21.0214 4.09814H21.3248V4.62942Z" fill="#5D6066"/>
</g>
<defs>
<clipPath id="clip0_32_4879">
<rect width="24" height="16.3162" fill="white"/>
</clipPath>
</defs>
</svg>
