<svg width="20" height="16" viewBox="0 0 20 16" fill="none" xmlns="http://www.w3.org/2000/svg">
<path d="M19.8112 8.43853C19.6104 8.67795 19.4112 8.91846 19.2088 9.15679C18.9846 9.4207 18.7702 9.43975 18.5014 9.2172C15.7513 6.92527 13.0018 4.63297 10.2527 2.34031C10.1733 2.27338 10.0928 2.20808 9.99753 2.12918C9.68628 2.38819 9.37667 2.64448 9.06868 2.90186C6.54893 5.00226 4.02937 7.10302 1.50998 9.20414C1.22267 9.44356 1.01427 9.42669 0.775931 9.14156C0.514742 8.82868 0.256815 8.51253 -0.00219727 8.19801V7.96294C0.0794243 7.86445 0.147989 7.75073 0.244846 7.6702C3.13788 5.25529 6.03272 2.84292 8.92938 0.433085C9.62425 -0.14534 10.3735 -0.143163 11.0695 0.43635C11.9746 1.19053 12.8784 1.94599 13.781 2.70271C13.8299 2.74406 13.8811 2.7827 13.9589 2.84419C13.9638 2.75386 13.9698 2.69346 13.9698 2.63251C13.9698 1.94254 13.9698 1.25256 13.9698 0.564767C13.9698 0.170263 14.0993 0.043479 14.4987 0.0429349C15.2083 0.0429349 15.9178 0.0429349 16.6274 0.0429349C17.0083 0.0429349 17.1432 0.181691 17.1438 0.563136C17.1438 2.14496 17.1438 3.72678 17.14 5.30861C17.1365 5.37176 17.149 5.43476 17.1763 5.49181C17.2036 5.54887 17.2448 5.59814 17.2961 5.6351C18.1123 6.30439 18.9199 6.98022 19.7312 7.65387C20.0647 7.92594 20.0832 8.11367 19.8112 8.43853Z" fill="#9EA2A8"/>
<path d="M17.1471 15.0146C17.1471 15.5979 16.8238 15.9239 16.2422 15.9244C14.7577 15.9244 13.2737 15.9244 11.79 15.9244C11.7323 15.9244 11.6752 15.919 11.5968 15.9151V11.1762H8.41302V15.9151C8.32214 15.919 8.25902 15.9244 8.19536 15.9244C6.71819 15.9244 5.24066 15.9244 3.76277 15.9244C3.16965 15.9244 2.85133 15.5979 2.85133 14.9994C2.85133 13.1052 2.85132 11.211 2.84806 9.31686C2.84427 9.25029 2.85722 9.18384 2.88574 9.12357C2.91426 9.0633 2.95743 9.01115 3.0113 8.97187C5.27893 7.10872 7.5442 5.24267 9.80711 3.37372C9.86697 3.3242 9.92792 3.27741 10.0008 3.21973L13.3021 5.94045C14.5323 6.95618 15.7629 7.96974 16.9942 8.98112C17.0453 9.01898 17.0861 9.06904 17.1129 9.12674C17.1397 9.18443 17.1517 9.24793 17.1476 9.31142C17.1447 11.2134 17.1445 13.1144 17.1471 15.0146Z" fill="#9EA2A8"/>
</svg>
