<svg width="36" height="35" viewBox="0 0 36 35" fill="none" xmlns="http://www.w3.org/2000/svg">
<g clip-path="url(#clip0_32_4881)">
<path d="M13.6935 14.1521C10.7834 14.1528 7.8733 14.1429 4.96322 14.1633C4.56348 14.168 4.15191 14.2845 3.76205 14.4031C3.51444 14.4781 3.29647 14.6526 3.06598 14.783L2.58326 15.2657C2.56864 15.3031 2.55102 15.3392 2.53058 15.3737C1.58557 16.7139 1.82528 18.4708 3.09296 19.4738C4.31587 20.4425 6.06101 20.2792 7.13575 19.0886C7.18279 19.0303 7.24292 18.9841 7.31124 18.9535C7.37956 18.923 7.45415 18.909 7.5289 18.9127C9.54227 18.9189 11.5552 18.9202 13.5677 18.9167C13.6546 18.9167 13.7416 18.9127 13.8094 18.9108L13.8048 14.1647C13.7863 14.1581 13.7402 14.1528 13.6935 14.1521ZM5.5447 17.7478C5.42088 17.8713 5.26324 17.9555 5.09166 17.9895C4.92008 18.0236 4.74225 18.0061 4.5806 17.9393C4.41895 17.8724 4.28072 17.7592 4.18334 17.6138C4.08596 17.4685 4.03379 17.2976 4.03342 17.1227C4.03306 16.9478 4.0845 16.7766 4.18127 16.6309C4.27803 16.4852 4.41579 16.3714 4.57716 16.3038C4.73853 16.2363 4.91629 16.218 5.08801 16.2514C5.25973 16.2848 5.41773 16.3682 5.54208 16.4913C5.62634 16.5727 5.6934 16.6702 5.73928 16.778C5.78515 16.8859 5.80892 17.0018 5.80917 17.119C5.80941 17.2361 5.78612 17.3522 5.7407 17.4602C5.69527 17.5682 5.62862 17.666 5.5447 17.7478Z" fill="#5D6066"/>
<path d="M35.2804 17.7479C28.8471 20.7436 22.1195 22.2819 15.0889 22.5124L15.0949 21.3211C20.9434 21.1927 26.6147 19.9573 32.1945 17.9428C31.829 17.6339 31.5142 17.36 31.1883 17.1051C31.1408 17.0683 31.0216 17.1032 30.9453 17.1255C29.7902 17.4904 28.6463 17.8967 27.48 18.22C23.509 19.3211 19.4715 20.0264 15.3405 20.114C15.2516 20.116 15.1627 20.1219 15.0988 20.1252C15.1008 18.1318 15.1014 16.1542 15.1028 14.1022C15.1832 14.1287 15.2666 14.1453 15.351 14.1516C19.8726 14.1542 24.3934 14.1812 28.9143 14.1397C30.7404 14.1219 32.2663 14.6916 33.5346 15.9942C34.0885 16.5691 34.6574 17.1249 35.2804 17.7479Z" fill="#5D6066"/>
</g>
<defs>
<clipPath id="clip0_32_4881">
<rect width="24" height="24.8708" fill="white" transform="translate(0.721558 17.1274) rotate(-45)"/>
</clipPath>
</defs>
</svg>
