<svg width="21" height="21" viewBox="0 0 21 21" fill="none" xmlns="http://www.w3.org/2000/svg">
<path d="M14.6123 2.20264H12.4056C9.68973 2.20264 7.9923 3.90007 7.9923 6.61597V10.0533H11.7606L10.0038 8.29643C9.94433 8.23761 9.89721 8.16753 9.86515 8.0903C9.8331 8.01307 9.81674 7.93023 9.81704 7.84661C9.81704 7.68535 9.87645 7.5241 10.0038 7.39679C10.2499 7.15066 10.6573 7.15066 10.9034 7.39679L13.7466 10.24C13.9927 10.4861 13.9927 10.8935 13.7466 11.1396L10.9034 13.9828C10.6573 14.229 10.2499 14.229 10.0038 13.9828C9.88538 13.8631 9.81899 13.7014 9.81899 13.533C9.81899 13.3646 9.88538 13.203 10.0038 13.0832L11.7606 11.3264H7.9923V14.7637C7.9923 17.4796 9.68973 19.177 12.4056 19.177H14.6038C17.3197 19.177 19.0171 17.4796 19.0171 14.7637V6.61597C19.0256 3.90007 17.3282 2.20264 14.6123 2.20264ZM2.68781 10.0533C2.33983 10.0533 2.05127 10.3418 2.05127 10.6898C2.05127 11.0378 2.33983 11.3264 2.68781 11.3264H7.9923V10.0533H2.68781Z" fill="#828893"/>
</svg>
