<svg width="39" height="24" viewBox="0 0 39 24" fill="none" xmlns="http://www.w3.org/2000/svg">
<path d="M1 7.5C1 7.5 1.70584 7.5 12.25 7.5M1 15C1 15 2.45584 15 13 15M1 22.5H16" stroke="#BBC3CC" stroke-width="2" stroke-linecap="round"/>
<path d="M36.5 22L34.5 20M26 21C27.2476 21 28.4829 20.7543 29.6355 20.2769C30.7881 19.7994 31.8354 19.0997 32.7175 18.2175C33.5997 17.3354 34.2994 16.2881 34.7769 15.1355C35.2543 13.9829 35.5 12.7476 35.5 11.5C35.5 10.2524 35.2543 9.0171 34.7769 7.86451C34.2994 6.71191 33.5997 5.66464 32.7175 4.78249C31.8354 3.90033 30.7881 3.20056 29.6355 2.72314C28.4829 2.24572 27.2476 2 26 2C23.4804 2 21.0641 3.00089 19.2825 4.78249C17.5009 6.56408 16.5 8.98044 16.5 11.5C16.5 14.0196 17.5009 16.4359 19.2825 18.2175C21.0641 19.9991 23.4804 21 26 21Z" stroke="#BBC3CC" stroke-width="2" stroke-linecap="round" stroke-linejoin="round"/>
</svg>
