<svg width="24" height="21" viewBox="0 0 24 21" fill="none" xmlns="http://www.w3.org/2000/svg">
<g clip-path="url(#clip0_32_4929)">
<path d="M22.6044 3.89305C21.2066 3.91379 19.8087 3.89306 18.4103 3.9022C18.2225 3.9022 18.1217 3.85097 18.0441 3.67654C17.6159 2.71471 17.1677 1.76142 16.7382 0.800815C16.4947 0.256776 16.081 -0.00121551 15.4756 4.30489e-06C13.1565 0.00285055 10.8374 0.00285055 8.51831 4.30489e-06C7.9136 4.30489e-06 7.49669 0.251897 7.25318 0.792886C6.82312 1.7541 6.37679 2.70739 5.94736 3.66861C5.87099 3.83877 5.77897 3.90098 5.58428 3.89976C4.16327 3.89122 2.74226 3.89976 1.32125 3.89367C0.955047 3.89367 0.608871 3.96076 0.364733 4.23765C0.21199 4.41087 0.118726 4.63348 -0.00146484 4.83414V5.65569C0.0492407 5.73864 0.0792866 5.85208 0.153154 5.89966C0.451127 6.09056 0.403552 6.37599 0.403552 6.65228C0.403552 6.78158 0.403552 6.91088 0.403552 7.04018C0.403552 11.0042 0.403552 14.9686 0.403552 18.9334C0.403552 19.2195 0.43172 19.4951 0.60512 19.7385C0.879306 20.1227 1.26492 20.2661 1.73191 20.2661C8.57153 20.2632 15.4116 20.2632 22.252 20.2661C22.3146 20.2661 22.3772 20.2661 22.4398 20.2661C22.883 20.2313 23.2492 20.0471 23.4358 19.6494C23.5365 19.4206 23.5874 19.1739 23.5854 18.9249C23.5933 14.7405 23.5946 10.5561 23.5891 6.37173C23.5891 6.22779 23.6148 6.12044 23.7362 6.01493C23.8466 5.91781 23.9237 5.7901 23.9572 5.64898C24.1494 4.64507 23.7031 3.8772 22.6044 3.89305ZM6.81811 3.67288C7.2031 2.82632 7.59434 1.9816 7.97245 1.132C8.08325 0.883152 8.24726 0.775201 8.52896 0.77581C10.8389 0.78191 13.149 0.78191 15.4593 0.77581C15.7404 0.77581 15.9069 0.881325 16.0177 1.13017C16.3933 1.97977 16.7871 2.82449 17.1727 3.67105C17.2002 3.73204 17.2228 3.79303 17.2635 3.89732C16.988 3.89732 16.7539 3.91196 16.5229 3.8894C16.4497 3.88208 16.357 3.79059 16.322 3.71618C16.0421 3.12274 15.7661 2.52808 15.5082 1.9261C15.3917 1.65591 15.2121 1.55284 14.9141 1.55405C12.9706 1.56178 11.0271 1.56178 9.08358 1.55405C8.78624 1.55405 8.6047 1.65225 8.48826 1.92366C8.23161 2.51893 7.9474 3.102 7.68949 3.69606C7.61938 3.85646 7.52988 3.9144 7.35648 3.90159C7.16367 3.88696 6.96835 3.89793 6.7336 3.89793C6.7674 3.80401 6.78619 3.73692 6.81811 3.67288ZM15.5194 3.8839H8.47637C8.70424 3.38378 8.91832 2.90805 9.1443 2.43232C9.1664 2.4042 9.19483 2.38139 9.22738 2.36564C9.25994 2.34988 9.29575 2.34161 9.3321 2.34145C11.1116 2.33657 12.8913 2.33657 14.6712 2.34145C14.707 2.34233 14.7421 2.35114 14.7739 2.3672C14.8057 2.38326 14.8333 2.40616 14.8546 2.43415C15.0762 2.90683 15.2903 3.38561 15.5176 3.8839H15.5194ZM22.7904 18.8877C22.7904 19.3884 22.6883 19.4878 22.1756 19.4878H1.81829C1.30623 19.4878 1.20483 19.3884 1.20483 18.8864V6.26743L1.26367 6.25218C1.28866 6.29582 1.30961 6.34154 1.32627 6.3888C1.45147 6.85965 1.57041 7.33111 1.69185 7.80257C1.94225 8.77232 2.70095 9.35418 3.73071 9.35479C9.24363 9.35479 14.7566 9.35479 20.2695 9.35479C21.2999 9.35479 22.0567 8.77355 22.3071 7.80135C22.4204 7.35917 22.5312 6.91637 22.6451 6.47419C22.6645 6.39978 22.6915 6.32659 22.7146 6.25279L22.7922 6.26804L22.7904 18.8877ZM2.11564 6.25035H21.8877C21.7299 6.81574 21.6116 7.3732 21.4138 7.90321C21.251 8.3399 20.856 8.53934 20.3834 8.57411C20.3058 8.58021 20.2269 8.57411 20.1493 8.57411H3.84401C3.02271 8.57411 2.63334 8.27403 2.43553 7.49152C2.33224 7.08959 2.22706 6.68522 2.11564 6.25035ZM23.1929 5.44161H0.798558C0.798558 5.31963 0.798558 5.22388 0.798558 5.12568C0.805444 4.83354 0.944405 4.69508 1.24238 4.68167C1.30498 4.68167 1.36758 4.68167 1.43018 4.68167H22.5612C22.6314 4.68167 22.7021 4.68167 22.7722 4.68167C23.0433 4.69935 23.181 4.83719 23.1916 5.10372C23.1966 5.20985 23.1929 5.31597 23.1929 5.44161Z" fill="#5D6066"/>
<path d="M21.0147 13.687C19.7067 13.1586 18.307 12.8791 16.8912 12.8636C16.7823 12.8574 16.6791 12.8142 16.5995 12.7416C16.5163 12.6558 16.4159 12.5875 16.3046 12.5408C16.1933 12.4941 16.0734 12.4701 15.9522 12.4702C15.6793 12.4702 15.4051 12.4787 15.1328 12.4641C15.0282 12.4601 14.9281 12.4214 14.8492 12.3543C14.371 11.8816 13.7944 11.6834 13.1177 11.6877C11.2911 11.698 9.46381 11.706 7.63716 11.6834C6.95983 11.6749 6.39456 11.8444 5.94697 12.3543C5.8927 12.4159 5.81679 12.4554 5.73413 12.4653C5.43114 12.4775 5.12754 12.4702 4.81329 12.4702C4.68308 11.8932 4.42329 11.6926 3.83861 11.6926C3.6433 11.6926 3.448 11.6926 3.25269 11.6926C2.73499 11.6993 2.39759 12.0176 2.39571 12.5196C2.39153 13.7898 2.39153 15.0603 2.39571 16.3309C2.39571 16.8036 2.7087 17.1238 3.19009 17.1476C3.4624 17.1616 3.73657 17.158 4.00951 17.1476C4.3319 17.136 4.62737 16.9969 4.70499 16.6981C4.79138 16.3626 4.98106 16.3395 5.25399 16.37C5.33944 16.38 5.42582 16.38 5.51127 16.37C5.73976 16.3407 5.90878 16.4206 6.06089 16.5901C6.40331 16.9719 6.84527 17.1531 7.36672 17.1531C9.31857 17.1531 11.2704 17.1531 13.2223 17.1531C13.6949 17.1531 14.1813 17.0835 14.5049 16.7493C14.8724 16.3706 15.2887 16.3462 15.7525 16.3712C15.8533 16.3767 15.9654 16.3925 16.0543 16.359C16.2383 16.2901 16.4092 16.1894 16.5864 16.1046C16.6834 16.0589 16.7836 15.9827 16.8831 15.9827C18.2987 15.9649 19.6979 15.6846 21.0059 15.1568C21.3996 14.997 21.6062 14.7452 21.5924 14.4164C21.578 14.0395 21.3571 13.8248 21.0147 13.687ZM3.98197 16.3529H3.20762V12.4836H3.98197V16.3529ZM5.57825 15.5673H4.81016V13.2564H5.57825V15.5673ZM14.3872 15.6893C14.3814 15.7692 14.3489 15.8451 14.2946 15.9052C14.0066 16.2321 13.6354 16.3706 13.1953 16.3681C12.2357 16.3626 11.2754 16.3681 10.3158 16.3681C9.35613 16.3681 8.41151 16.3517 7.46 16.3754C7.00365 16.387 6.71382 16.1595 6.44965 15.857C6.41331 15.7999 6.39644 15.7331 6.40145 15.6661C6.39852 14.837 6.39852 14.0084 6.40145 13.1801C6.40145 12.8935 6.86092 12.5092 7.24027 12.472C7.30276 12.4675 7.36544 12.4661 7.42807 12.4678C9.35572 12.4678 11.2832 12.4678 13.2104 12.4678C13.6423 12.4678 14.0054 12.608 14.2883 12.9246C14.3479 12.9904 14.3833 13.0737 14.3891 13.1612C14.395 14.0029 14.3943 14.846 14.3872 15.6905V15.6893ZM15.9735 15.5673H15.2042V13.2582H15.9735V15.5673ZM16.8067 15.1831V13.651C18.1535 13.654 19.4866 13.9145 20.7304 14.4176C19.487 14.922 18.1536 15.1825 16.8067 15.1843V15.1831Z" fill="#5D6066"/>
</g>
<defs>
<clipPath id="clip0_32_4929">
<rect width="24" height="20.2667" fill="white"/>
</clipPath>
</defs>
</svg>
