<svg width="24" height="18" viewBox="0 0 24 18" fill="none" xmlns="http://www.w3.org/2000/svg">
<g clip-path="url(#clip0_32_1547)">
<path d="M0.000573158 7.31259V7.68779C0.121531 7.84574 0.220761 8.02777 0.366379 8.15753C2.7957 10.3524 5.22776 12.5445 7.66256 14.7338C7.89743 14.9464 8.15167 15.0662 8.47286 14.9646C8.59127 14.9292 8.69893 14.8648 8.78602 14.7771C8.87311 14.6894 8.93685 14.5813 8.97142 14.4626C9.00599 14.344 9.01028 14.2186 8.98391 14.0978C8.95754 13.9771 8.90134 13.8649 8.82046 13.7715C8.73103 13.6732 8.63511 13.581 8.53334 13.4955L2.06917 7.67899C2.01046 7.62732 1.95644 7.57271 1.8484 7.47172C1.91891 7.43329 1.98626 7.38931 2.04979 7.34019C4.20588 5.40292 6.3608 3.46526 8.51454 1.5272C8.61319 1.43795 8.71535 1.35105 8.80401 1.25358C8.93043 1.11864 9.00217 0.94152 9.00527 0.75664C9.00837 0.57176 8.94262 0.392332 8.8208 0.25323C8.69898 0.114129 8.52978 0.0252914 8.3461 0.00398744C8.16243 -0.0173165 7.9774 0.0304335 7.82697 0.137957C7.75734 0.188185 7.69122 0.243117 7.62909 0.302366C5.21229 2.47607 2.79707 4.65115 0.38341 6.82759C0.231919 6.96205 0.126815 7.14936 0.000573158 7.31259Z" fill="#A6ADB7"/>
<path d="M4.84408 8.14296C7.28123 10.3386 9.71955 12.5342 12.1591 14.7298C12.4245 14.9694 12.7157 15.0863 13.0562 14.9318C13.3968 14.7774 13.5054 14.485 13.5037 14.1262C13.4984 12.9313 13.5037 11.7359 13.5037 10.5075C14.3071 10.478 15.1099 10.5819 15.8794 10.8152C17.7401 11.3894 19.2262 12.518 20.5292 13.9319C21.3277 14.7997 21.9384 15.7979 22.552 16.7967C22.7328 17.0903 22.97 17.2881 23.3352 17.2406C23.7744 17.1819 24.0522 16.8296 23.994 16.3733C23.8302 15.0886 23.7081 13.7945 23.4656 12.5244C23.1021 10.6302 22.2002 8.99436 20.8233 7.63506C19.0454 5.88001 16.8711 4.94934 14.4232 4.60937C14.1237 4.56768 13.8207 4.55065 13.5054 4.52306V4.24298C13.5054 3.11796 13.5025 1.99294 13.5054 0.867922C13.5054 0.507986 13.388 0.218511 13.0504 0.0670207C12.7127 -0.0844692 12.4303 0.029441 12.1696 0.262548C9.7266 2.46326 7.28259 4.66339 4.83761 6.86293C4.38138 7.27277 4.38433 7.72901 4.84408 8.14296Z" fill="#A6ADB7"/>
</g>
<defs>
<clipPath id="clip0_32_1547">
<rect width="24" height="17.2452" fill="white" transform="matrix(-1 0 0 1 24 0)"/>
</clipPath>
</defs>
</svg>
