<svg width="24" height="27" viewBox="0 0 24 27" fill="none" xmlns="http://www.w3.org/2000/svg">
<g clip-path="url(#clip0_32_4874)">
<path d="M23.7507 1.29865C23.3667 0.925471 22.9799 0.555698 22.5856 0.194775C22.2934 -0.0728525 21.9557 -0.0605918 21.7064 0.206355C21.4572 0.473302 21.4776 0.798127 21.7541 1.08618C21.9952 1.33679 22.2308 1.59284 22.48 1.86115C22.2873 2.06544 22.0714 2.30515 21.8419 2.53056C21.776 2.57937 21.695 2.60347 21.6131 2.59866C21.18 2.59866 20.7462 2.59252 20.3138 2.56665C20.1789 2.55627 20.0434 2.57621 19.9172 2.62499C19.791 2.67378 19.6773 2.75017 19.5845 2.84858C18.5485 3.84282 17.5079 4.83207 16.4628 5.81632C16.3852 5.88034 16.3026 5.93795 16.2156 5.9886C16.0202 6.12071 15.7989 6.22627 15.6327 6.38767C14.9558 7.04414 14.2987 7.72103 13.6245 8.38023C13.5468 8.4565 13.4093 8.47148 13.299 8.51642C13.1246 8.58452 12.9135 8.61177 12.7835 8.7289C12.3803 9.09255 12.0146 9.49773 11.6197 9.87159C11.4051 10.0759 11.2941 10.3061 11.3255 10.5948C11.3459 10.7868 11.2649 10.9046 11.1287 11.0293C9.52971 12.4907 7.93347 13.955 6.33997 15.4223C6.24515 15.5003 6.16752 15.5971 6.11196 15.7065C6.05641 15.816 6.02413 15.9358 6.01718 16.0583C5.99947 16.3886 5.94908 16.7175 5.93069 17.0478C5.92716 17.1524 5.90148 17.255 5.85534 17.3489C5.80921 17.4428 5.74368 17.5259 5.66307 17.5926C3.92201 19.1498 2.1855 20.7124 0.453524 22.2805C0.318775 22.3977 0.209261 22.541 0.131643 22.7017C0.0540251 22.8625 0.00992007 23.0374 0.00202117 23.2158C-0.00587773 23.3941 0.0225968 23.5722 0.085698 23.7393C0.148799 23.9063 0.245215 24.0587 0.369082 24.1873C0.853944 24.6985 1.35333 25.1965 1.86725 25.6814C2.34394 26.1349 3.0154 26.1274 3.50162 25.6848C3.62604 25.5692 3.7383 25.4412 3.83666 25.3027C4.83135 23.9367 5.82423 22.5695 6.81529 21.2012C7.01959 20.9233 7.23206 20.6564 7.46155 20.354C7.52965 20.497 7.58004 20.6033 7.63384 20.7061C7.98591 21.3775 8.43332 21.6595 9.12656 21.5703C9.86884 21.4756 10.5376 21.148 11.1811 20.7858C11.4624 20.6271 11.5148 20.3819 11.3929 20.0789C11.2308 19.6778 11.0599 19.2801 10.8835 18.8851C10.8304 18.7659 10.8481 18.6951 10.9421 18.6018C11.5754 17.9767 12.1413 17.308 12.2182 16.3662C12.2416 16.3685 12.2645 16.374 12.2863 16.3825C12.3544 16.4274 12.428 16.4758 12.4995 16.5187C13.6865 17.2848 14.9129 17.9733 16.2762 18.3805C16.8803 18.5617 17.4959 18.6904 18.1326 18.6168C18.5303 18.5705 18.7223 18.3669 18.7257 17.9855C18.7312 17.2038 18.7326 16.4193 18.7257 15.6409C18.7257 15.2575 18.4949 15.0593 18.119 14.9831C17.389 14.8353 16.6528 14.6957 15.9446 14.4744C15.1418 14.2268 14.4131 13.7836 13.824 13.1846C13.8921 13.1165 13.9452 13.0484 14.0038 12.9898C15.5333 11.4199 17.0632 9.85071 18.5936 8.28217C18.7741 8.0983 18.8878 7.88311 18.785 7.64068C18.6965 7.43025 18.7795 7.32742 18.9144 7.19123C20.5251 5.57048 22.1323 3.94588 23.7358 2.31741C24.0824 1.96602 24.0872 1.62552 23.7507 1.29865ZM10.3734 17.483L10.2481 17.4666C10.2257 17.2848 10.1188 17.0124 10.1978 16.9375C10.4095 16.7373 10.5771 16.4029 10.9394 16.4329L11.019 16.5112L10.3734 17.483ZM17.805 6.51909C17.7751 6.49594 17.7199 6.451 17.6627 6.40469C17.6695 6.37704 17.6805 6.35061 17.6954 6.32638C18.8177 5.14214 20.3193 3.80673 20.5229 3.79992L17.805 6.51909Z" fill="#5D6066"/>
</g>
<defs>
<clipPath id="clip0_32_4874">
<rect width="24" height="26.0171" fill="white"/>
</clipPath>
</defs>
</svg>
