<svg width="20" height="14" viewBox="0 0 20 14" fill="none" xmlns="http://www.w3.org/2000/svg">
<path d="M12.43 13.8201C12.24 13.8201 12.05 13.7501 11.9 13.6001C11.7605 13.459 11.6823 13.2685 11.6823 13.0701C11.6823 12.8717 11.7605 12.6813 11.9 12.5401L17.44 7.00012L11.9 1.46012C11.7605 1.31898 11.6823 1.12855 11.6823 0.930117C11.6823 0.731687 11.7605 0.541255 11.9 0.400117C12.19 0.110117 12.67 0.110117 12.96 0.400117L19.03 6.47012C19.32 6.76012 19.32 7.24012 19.03 7.53012L12.96 13.6001C12.81 13.7501 12.62 13.8201 12.43 13.8201Z" fill="white"/>
<path d="M18.33 7.75H1.5C1.09 7.75 0.75 7.41 0.75 7C0.75 6.59 1.09 6.25 1.5 6.25H18.33C18.74 6.25 19.08 6.59 19.08 7C19.08 7.41 18.74 7.75 18.33 7.75Z" fill="white"/>
</svg>
