<svg width="24" height="32" viewBox="0 0 24 32" fill="none" xmlns="http://www.w3.org/2000/svg">
<g clip-path="url(#clip0_32_4877)">
<path d="M13.5531 12.7904C14.7745 14.0271 14.7745 15.6714 13.5531 16.9035C12.902 17.56 12.2432 18.2082 11.5966 18.8692C11.4706 18.9991 11.3673 19.1493 11.2912 19.3135C9.5212 23.1539 7.75422 26.9962 5.9903 30.8406C5.94144 30.9482 5.88648 31.0528 5.84678 31.1322L-0.00378418 25.2801L2.74439 22.5403C3.01082 22.2755 3.27877 22.0144 3.53984 21.7419C3.93146 21.3289 3.93604 20.8258 3.54977 20.4075C3.35587 20.1998 3.14365 20.0105 2.93906 19.812L6.9995 15.7562L6.09488 14.8836L3.71008 17.2753L2.4337 16.0081L8.84077 9.60636L10.0813 10.8514C9.20949 11.7186 8.30793 12.6164 7.40943 13.5103L8.36442 14.4683C8.41328 14.376 8.44534 14.2569 8.52092 14.1813C13.1572 9.53688 17.7958 4.89501 22.4366 0.255677C22.5081 0.175025 22.5746 0.0901297 22.6359 0.00146484H22.6962L23.9985 1.26716L13.0058 12.2599C13.2089 12.4538 13.386 12.6187 13.5531 12.7904Z" fill="#5D6066"/>
</g>
<defs>
<clipPath id="clip0_32_4877">
<rect width="24" height="31.1315" fill="white"/>
</clipPath>
</defs>
</svg>
