<svg width="30" height="30" viewBox="0 0 30 30" fill="none" xmlns="http://www.w3.org/2000/svg">
<path d="M18.7875 13.4625L25.8625 8.72501C26.575 8.25001 26.7625 7.27501 26.2875 6.57501L24.0125 3.18751C23.5375 2.47501 22.5625 2.28751 21.8625 2.76251L14.7875 7.50001L18.7875 13.4625Z" stroke="#BBC3CC" stroke-width="2" stroke-linecap="round" stroke-linejoin="round"/>
<path d="M15.0625 15.25L9.45 27.5M15 15.25L20.55 27.5M15.2175 8.1L9.245 12.1L12.445 16.8763L18.4175 12.8763L15.2175 8.1ZM7.2875 19.875L12.225 16.575L9.425 12.4L4.4875 15.7C3.9125 16.0875 3.7625 16.8625 4.15 17.4375L5.5625 19.5375C5.9375 20.1 6.7125 20.25 7.2875 19.875Z" stroke="#BBC3CC" stroke-width="2" stroke-linecap="round" stroke-linejoin="round"/>
</svg>
