<svg width="20" height="20" viewBox="0 0 20 20" fill="none" xmlns="http://www.w3.org/2000/svg">
<path d="M19.3914 6.83767C19.2881 6.82413 19.1863 6.8009 19.0874 6.76829C18.9897 6.73028 18.8815 6.68432 18.813 6.60963C18.5173 6.28569 18.1593 6.0656 17.7315 5.99091C17.3607 5.92637 16.9857 5.88929 16.6094 5.87999C15.7136 5.86098 14.8125 5.93921 13.9348 5.67713C13.8164 5.64178 13.7328 5.59626 13.6657 5.48533C12.6769 3.84043 11.6852 2.19745 10.6905 0.556375C10.6288 0.449291 10.5592 0.346922 10.4824 0.25011C10.2044 -0.0857648 9.78942 -0.0848809 9.51011 0.25011C9.4374 0.341945 9.37152 0.438991 9.31301 0.540465C8.31599 2.18802 7.31912 3.83557 6.3224 5.48312C6.28483 5.545 6.22826 5.62675 6.16816 5.63869C5.72312 5.72707 5.27633 5.8517 4.82776 5.86363C3.6628 5.89501 2.49696 5.8738 1.33113 5.87424C0.840131 5.87424 0.633302 6.07046 0.645677 6.55792C0.650538 6.74972 0.604134 6.83723 0.407913 6.89689C-0.0282824 7.02947 -0.126396 7.41042 0.162191 7.76795C0.228865 7.8479 0.300292 7.92376 0.376089 7.99511C1.02427 8.6262 1.67451 9.25582 2.32681 9.88396C2.37285 9.92334 2.40929 9.97272 2.43334 10.0283C2.45739 10.0839 2.46842 10.1443 2.46558 10.2048C2.45895 10.8496 2.45984 11.4944 2.46558 12.1387C2.46558 12.5422 2.68037 12.7486 3.0843 12.7504C3.46834 12.7504 3.85239 12.7504 4.23644 12.7504C4.2908 12.7504 4.34516 12.7592 4.40703 12.765C4.1781 14.4072 3.95006 16.03 3.72644 17.6537C3.68225 17.9688 3.63496 18.2861 3.63186 18.603C3.62833 18.9464 3.85725 19.128 4.19755 19.0763C4.34392 19.0496 4.48544 19.001 4.61739 18.9322C6.34744 18.0896 8.07572 17.2432 9.80223 16.3929C9.86246 16.3586 9.93064 16.3408 9.99991 16.3413C10.0692 16.3418 10.1371 16.3605 10.1969 16.3955C11.9352 17.2529 13.6748 18.1057 15.4158 18.9539C15.6579 19.0723 15.9169 19.1855 16.1719 19.0034C16.415 18.8302 16.3929 18.5579 16.3584 18.3056C16.1626 16.8684 15.9607 15.433 15.7583 13.9953C15.7014 13.5861 15.6454 13.177 15.5903 12.7681C16.0972 12.6916 16.2369 12.5263 16.2373 12.0243C16.2393 11.9982 16.2393 11.9721 16.2373 11.9461C16.1569 11.4679 16.3147 11.1024 16.7067 10.8045C16.8834 10.6693 17.0421 10.5716 17.2697 10.5522C18.4581 10.4496 19.2615 9.6104 19.3419 8.4207C19.3486 8.32347 19.4135 8.2205 19.4745 8.13786C19.6429 7.91114 19.8237 7.69327 19.9996 7.47185V7.23763C19.8643 7.00605 19.6518 6.88496 19.3914 6.83767ZM6.61496 7.84971H4.803V12.2015H3.0074V7.85723H1.19147V6.43109H6.61319L6.61496 7.84971ZM12.6527 10.7979C12.3049 11.615 11.646 12.0671 10.7895 12.2364C10.5244 12.289 10.2477 12.3 10.0824 12.3186C9.40714 12.2965 8.84499 12.247 8.33013 11.9721C7.60005 11.5815 7.18109 10.9557 7.02111 10.1544C6.88852 9.50743 6.89603 8.8591 7.08341 8.22359C7.36493 7.26945 8.00575 6.66973 8.9652 6.43418C9.68257 6.25144 10.4368 6.27364 11.1422 6.49826C11.9611 6.75945 12.5206 7.30259 12.7676 8.12548C13.0368 9.02306 13.0231 9.92772 12.6527 10.7979ZM18.6348 9.07875C18.3166 9.76773 17.7099 9.99577 17.0151 10.0417C16.5882 10.0705 16.1582 10.047 15.6968 10.047V12.1988H13.9154V6.42004H14.0714C14.995 6.42004 15.9196 6.40413 16.8428 6.42843C17.1923 6.4366 17.5385 6.49738 17.8699 6.60875C18.4722 6.81602 18.7219 7.31187 18.7909 7.91468C18.8368 8.31552 18.8072 8.70885 18.6348 9.07875Z" fill="#9EA2A8"/>
</svg>
