<svg width="27" height="15" viewBox="0 0 27 15" fill="none" xmlns="http://www.w3.org/2000/svg">
<g clip-path="url(#clip0_32_4975)">
<path d="M26.2304 8.34264C26.0296 6.92335 25.3965 5.73755 24.3114 4.79899C23.6155 4.19726 22.9124 3.60404 22.2106 3.01016C21.3688 2.2979 20.3871 1.92248 19.3007 1.78774C19.1737 1.76998 19.0549 1.71489 18.9593 1.62946C18.6323 1.32337 18.3262 0.996341 18.007 0.68305C17.266 -0.0442539 16.2038 -0.154789 15.3686 0.408348C14.9931 0.66212 14.7466 1.01923 14.5876 1.43848C13.8682 1.09576 13.3266 1.05586 12.5248 1.43521C12.5058 1.39989 12.4842 1.36523 12.4679 1.32795C11.8897 0.0361953 10.4154 -0.35362 9.30944 0.5215C8.89608 0.848525 8.5514 1.26189 8.16289 1.62161C8.06177 1.71177 7.93651 1.77042 7.80251 1.79036C6.74556 1.92967 5.77495 2.28351 4.9515 2.97092C4.20654 3.59161 3.45569 4.20708 2.74277 4.85982C1.14427 6.31835 0.530119 8.14184 0.95329 10.2531C1.42028 12.5855 3.23723 14.2847 5.56304 14.6909C6.86479 14.9121 8.20291 14.6705 9.3451 14.008C10.4873 13.3455 11.3614 12.3039 11.8158 11.0641C11.9603 10.6652 12.0499 10.2453 12.169 9.82145C13.0903 10.2876 14.0219 10.283 14.9637 9.80771C14.9997 10.0039 15.0232 10.1746 15.0631 10.3414C15.6106 12.6496 17.4105 14.3239 19.7533 14.7059C22.3401 15.1284 25.0008 13.5816 25.8955 11.1086C26.0714 10.6227 26.1571 10.104 26.2821 9.59972V8.60557C26.2644 8.51792 26.2428 8.43093 26.2304 8.34264ZM6.50749 12.974C4.38379 12.9812 2.63093 11.2329 2.62635 9.10199C2.62773 8.07518 3.03575 7.09072 3.76113 6.36399C4.48652 5.63725 5.47022 5.22741 6.49702 5.22412C7.00549 5.22335 7.50911 5.3228 7.97912 5.51678C8.44912 5.71077 8.87629 5.99549 9.23619 6.35466C9.59609 6.71383 9.88167 7.14041 10.0766 7.61002C10.2715 8.07963 10.372 8.58306 10.3723 9.09153C10.3731 10.1184 9.96681 11.1038 9.24234 11.8316C8.51787 12.5593 7.53438 12.9702 6.50749 12.974ZM13.5346 8.55847C13.2044 8.55348 12.8897 8.41795 12.6591 8.18153C12.4286 7.9451 12.301 7.62701 12.3043 7.29681C12.3056 6.96658 12.4377 6.65031 12.6717 6.41735C12.9058 6.18439 13.2227 6.05376 13.5529 6.05411C13.7186 6.05261 13.8829 6.08426 14.0362 6.14719C14.1894 6.21012 14.3286 6.30307 14.4454 6.42056C14.5622 6.53805 14.6544 6.67772 14.7164 6.83134C14.7785 6.98497 14.8092 7.14946 14.8067 7.31512C14.8069 7.48088 14.7738 7.64498 14.7096 7.79778C14.6454 7.95058 14.5512 8.08898 14.4327 8.20484C14.3141 8.3207 14.1736 8.41167 14.0194 8.4724C13.8651 8.53313 13.7003 8.5624 13.5346 8.55847ZM20.5984 12.9733C18.4505 12.9576 16.7094 11.1923 16.7395 9.05882C16.7508 8.03204 17.169 7.0517 17.9022 6.33282C18.6355 5.61395 19.6239 5.21523 20.6507 5.22412C22.7848 5.2444 24.52 7.01164 24.4893 9.13338C24.4586 11.2551 22.707 12.989 20.5984 12.9733Z" fill="#727884"/>
<path d="M6.51144 7.82208C5.67949 7.95289 5.3577 8.27599 5.24324 9.09421C5.19092 9.46963 4.9548 9.68285 4.616 9.65669C4.27721 9.63053 4.07968 9.36695 4.09603 8.94574C4.14182 7.75013 5.20792 6.70234 6.4068 6.67553C6.78418 6.66703 7.06085 6.89006 7.08178 7.22362C7.1014 7.52579 6.87379 7.76452 6.51144 7.82208Z" fill="#727884"/>
<path d="M20.6193 7.82211C19.7933 7.95292 19.5042 8.24266 19.3524 9.0962C19.2955 9.41668 19.1444 9.59916 18.8946 9.64756C18.6447 9.69596 18.4001 9.60113 18.2831 9.37482C18.2413 9.27789 18.2108 9.17651 18.1921 9.07265C18.2392 7.77109 19.272 6.72788 20.4905 6.67621C20.8764 6.65986 21.1445 6.86327 21.1831 7.19945C21.2197 7.51666 20.9967 7.76259 20.6193 7.82211Z" fill="#727884"/>
</g>
<defs>
<clipPath id="clip0_32_4975">
<rect width="25.4615" height="14.7233" fill="white" transform="translate(0.820557 0.0512695)"/>
</clipPath>
</defs>
</svg>
