<svg width="30" height="18" viewBox="0 0 30 18" fill="none" xmlns="http://www.w3.org/2000/svg">
<g clip-path="url(#clip0_32_1780)">
<path d="M29.9391 9.76933C29.7025 8.09705 28.9565 6.69989 27.678 5.59403C26.8581 4.88505 26.0296 4.18609 25.2027 3.48635C24.2109 2.64713 23.0542 2.20479 21.7742 2.04604C21.6246 2.02512 21.4846 1.9602 21.3719 1.85954C20.9866 1.49889 20.626 1.11357 20.2499 0.744438C19.3768 -0.112507 18.1252 -0.242745 17.1411 0.420771C16.6988 0.719777 16.4083 1.14054 16.221 1.63452C15.3733 1.23071 14.7352 1.1837 13.7904 1.63067C13.7681 1.58905 13.7427 1.54821 13.7234 1.50428C13.0421 -0.0177176 11.3051 -0.477017 10.002 0.554091C9.51496 0.939408 9.10883 1.42645 8.65108 1.8503C8.53193 1.95653 8.38435 2.02563 8.22646 2.04912C6.98111 2.21327 5.83749 2.63018 4.86726 3.44012C3.98951 4.17145 3.10483 4.89661 2.26483 5.66571C0.381406 7.38422 -0.342219 9.53274 0.156381 12.0203C0.706613 14.7684 2.84743 16.7705 5.58781 17.2491C7.12159 17.5098 8.69823 17.2251 10.044 16.4445C11.3898 15.6639 12.4197 14.4367 12.9551 12.9759C13.1254 12.5058 13.231 12.0111 13.3712 11.5117C14.4568 12.0609 15.5544 12.0555 16.6641 11.4955C16.7065 11.7267 16.7343 11.9279 16.7813 12.1244C17.4263 14.844 19.5471 16.8168 22.3075 17.2668C25.3553 17.7647 28.4903 15.9421 29.5445 13.0283C29.7518 12.4558 29.8527 11.8446 29.9999 11.2505V10.0791C29.9791 9.97586 29.9537 9.87337 29.9391 9.76933ZM6.7006 15.2262C4.19835 15.2347 2.13306 13.1748 2.12766 10.664C2.12929 9.4542 2.61003 8.29426 3.46472 7.43799C4.3194 6.58171 5.47845 6.09882 6.68827 6.09495C7.28737 6.09404 7.88077 6.21121 8.43455 6.43977C8.98833 6.66833 9.49163 7.0038 9.91569 7.427C10.3397 7.85019 10.6762 8.35281 10.9059 8.90613C11.1356 9.45945 11.254 10.0526 11.2543 10.6517C11.2553 11.8616 10.7765 13.0226 9.92293 13.8801C9.06932 14.7376 7.91054 15.2217 6.7006 15.2262ZM14.9803 10.0236C14.5913 10.0177 14.2204 9.85807 13.9487 9.5795C13.6771 9.30093 13.5268 8.92615 13.5307 8.53708C13.5322 8.14799 13.6878 7.77535 13.9636 7.50086C14.2394 7.22638 14.6128 7.07247 15.0019 7.07288C15.1971 7.07111 15.3907 7.1084 15.5713 7.18255C15.7519 7.25669 15.9158 7.36621 16.0534 7.50464C16.1911 7.64308 16.2997 7.80764 16.3728 7.98865C16.4459 8.16966 16.4821 8.36347 16.4792 8.55866C16.4793 8.75396 16.4404 8.94732 16.3647 9.12736C16.289 9.30739 16.1781 9.47046 16.0384 9.60697C15.8987 9.74348 15.7332 9.85067 15.5515 9.92222C15.3697 9.99378 15.1755 10.0283 14.9803 10.0236ZM23.3031 15.2254C20.7724 15.2069 18.7209 13.127 18.7564 10.6132C18.7698 9.40337 19.2625 8.24829 20.1264 7.40127C20.9904 6.55425 22.155 6.08447 23.3648 6.09495C25.8794 6.11884 27.9239 8.20109 27.8876 10.701C27.8514 13.201 25.7877 15.2439 23.3031 15.2254Z" fill="#A4AEB8"/>
<path d="M6.70534 9.15588C5.72509 9.31001 5.34594 9.69071 5.21108 10.6548C5.14943 11.0971 4.87123 11.3483 4.47204 11.3175C4.07285 11.2867 3.84012 10.9761 3.85939 10.4798C3.91333 9.07111 5.16946 7.83656 6.58204 7.80496C7.02669 7.79495 7.35267 8.05773 7.37733 8.45076C7.40045 8.80679 7.13227 9.08807 6.70534 9.15588Z" fill="#A4AEB8"/>
<path d="M23.3278 9.15592C22.3545 9.31004 22.0139 9.65144 21.8351 10.6571C21.7681 11.0347 21.5901 11.2497 21.2957 11.3068C21.0013 11.3638 20.7131 11.252 20.5751 10.9854C20.526 10.8712 20.49 10.7517 20.468 10.6294C20.5235 9.09581 21.7403 7.86665 23.176 7.80577C23.6307 7.7865 23.9467 8.02617 23.9921 8.42227C24.0353 8.79603 23.7725 9.08579 23.3278 9.15592Z" fill="#A4AEB8"/>
</g>
<defs>
<clipPath id="clip0_32_1780">
<rect width="30" height="17.3477" fill="white"/>
</clipPath>
</defs>
</svg>
